<?xml version="1.0" encoding="UTF-8"?>
<svg width="19px" height="19px" viewBox="0 0 19 19" version="1.1" xmlns="http://www.w3.org/2000/svg" xmlns:xlink="http://www.w3.org/1999/xlink">
    <!-- Generator: Sketch 49.3 (51167) - http://www.bohemiancoding.com/sketch -->
    <title>writing</title>
    <desc>Created with Sketch.</desc>
    <defs></defs>
    <g id="Symbols" stroke="none" stroke-width="1" fill="none" fill-rule="evenodd">
        <g id="导航/次级" transform="translate(-1184.000000, -21.000000)" fill="#9B9B9B">
            <g id="Group-3" transform="translate(1040.000000, 15.000000)">
                <g id="导航/24/投稿" transform="translate(141.000000, 4.000000)">
                    <path d="M18.7451404,13.2829386 C18.4989184,13.2829386 18.3012969,13.3574504 18.1522684,13.5064789 C18.0032399,13.6555074 17.9287257,13.8596104 17.9287257,14.1187905 L17.9287257,18.511879 C17.9287257,18.7581005 17.8509719,18.9557228 17.6954644,19.1047515 C17.5399568,19.2537805 17.3390933,19.3282937 17.0928713,19.3282937 L5.48812095,19.3282937 C5.22894036,19.3282937 5.0248388,19.2537805 4.87580981,19.1047515 C4.72678107,18.9557228 4.65226782,18.7581005 4.65226782,18.511879 L4.65226782,6.88768898 C4.65226782,6.64146702 4.72678107,6.44384553 4.87580981,6.29481704 C5.0248388,6.14578854 5.22894036,6.0712743 5.48812095,6.0712743 L9.8812095,6.0712743 C10.1274315,6.0712743 10.325053,5.99352052 10.4740815,5.83801296 C10.6231099,5.6825054 10.6976242,5.48164188 10.6976242,5.23541992 C10.6976242,4.98920045 10.6231099,4.78833693 10.4740815,4.63282937 C10.325053,4.47732181 10.1274315,4.39956803 9.8812095,4.39956803 L5.48812095,4.39956803 C4.77537432,4.39956803 4.18250785,4.63930595 3.70950312,5.11879174 C3.23649871,5.59827504 3,6.18790248 3,6.88768898 L3,18.511879 C3,19.2116666 3.23649871,19.8012935 3.70950312,20.2807775 C4.18250785,20.7602616 4.77537432,21 5.48812095,21 L17.0928713,21 C17.7926603,21 18.3822878,20.7602616 18.8617711,20.2807775 C19.3412544,19.8012935 19.5809923,19.2116666 19.5809923,18.511879 L19.5809923,14.1187905 C19.5809923,13.8596104 19.5064805,13.6555074 19.357452,13.5064789 C19.2084235,13.3574504 19.0043205,13.2829386 18.7451404,13.2829386 Z M21,6.30453564 L17.6760272,3 C17.507559,2.83153182 17.313177,2.74729897 17.0928713,2.74729897 C16.8725681,2.74729897 16.6781862,2.83153182 16.5097205,3 L8.20950324,11.2807775 C8.13174946,11.3714919 8.07343537,11.4622014 8.03455848,11.5529158 C7.9956791,11.6436302 7.9762419,11.7473002 7.9762419,11.8639309 L7.9762419,15.1879037 C7.9762419,15.4341257 8.05075615,15.6349892 8.19978464,15.7904968 C8.34881313,15.9460043 8.54643463,16.0237581 8.79265659,16.0237581 L12.1166294,16.0237581 C12.2462207,16.0237581 12.3531303,16.0010814 12.4373656,15.9557229 C12.5215985,15.910367 12.6090709,15.8488133 12.6997853,15.7710596 L21,7.47084233 C21.1555076,7.30237415 21.2332613,7.10799219 21.2332613,6.88768898 C21.2332613,6.66738578 21.1555076,6.47300382 21,6.30453564 Z M11.7861771,14.3520518 L9.62850848,14.3520518 L9.62850848,12.1943857 L17.0928713,4.73002284 L19.25054,6.88768898 L11.7861771,14.3520518 Z" id="Page-1"></path>
                </g>
            </g>
        </g>
    </g>
</svg>