<?xml version="1.0" encoding="UTF-8"?>
<svg width="16px" height="10px" viewBox="0 0 16 10" version="1.1" xmlns="http://www.w3.org/2000/svg" xmlns:xlink="http://www.w3.org/1999/xlink">
    <!-- Generator: Sketch 49.1 (51147) - http://www.bohemiancoding.com/sketch -->
    <title>fall-h</title>
    <desc>Created with Sketch.</desc>
    <defs></defs>
    <g id="完成" stroke="none" stroke-width="1" fill="none" fill-rule="evenodd">
        <g id="首页-copy-2" transform="translate(-1205.000000, -1484.000000)" fill="#62B00C" fill-rule="nonzero">
            <path d="M1205.20958,1492.58937 L1209.26401,1488.44208 C1209.90994,1487.78136 1210.96329,1487.78136 1211.60922,1488.44208 L1212.9607,1489.82451 C1213.28863,1490.15995 1213.80537,1490.15995 1214.1333,1489.82451 L1218.1778,1485.68738 L1215.6239,1485.68738 C1215.16679,1485.68738 1214.7991,1485.31128 1214.7991,1484.84369 C1214.7991,1484.3761 1215.16679,1484 1215.6239,1484 L1220.1752,1484 C1220.63232,1484 1221,1484.3761 1221,1484.84369 L1221,1489.49923 C1221,1489.96682 1220.63232,1490.34292 1220.1752,1490.34292 C1219.71808,1490.34292 1219.3504,1489.96682 1219.3504,1489.49923 L1219.3504,1486.87668 L1214.72954,1491.60338 C1214.08362,1492.2641 1213.03026,1492.2641 1212.38433,1491.60338 L1211.03286,1490.22094 C1210.70492,1489.8855 1210.18818,1489.8855 1209.86025,1490.22094 C1208.31278,1491.80796 1207.15217,1492.99823 1206.37843,1493.79174 C1206.26044,1493.91275 1205.55677,1494.19271 1205.20958,1493.79174 C1204.89085,1493.42362 1204.97239,1492.97166 1205.20958,1492.58937 Z" id="fall-h" transform="translate(1213.000000, 1489.000000) scale(1, -1) translate(-1213.000000, -1489.000000) "></path>
        </g>
    </g>
</svg>