<?xml version="1.0" encoding="UTF-8"?>
<svg width="134px" height="17px" viewBox="0 0 134 17" version="1.1" xmlns="http://www.w3.org/2000/svg" xmlns:xlink="http://www.w3.org/1999/xlink">
    <!-- Generator: Sketch 49.3 (51167) - http://www.bohemiancoding.com/sketch -->
    <title>grade4-icon</title>
    <desc>Created with Sketch.</desc>
    <defs></defs>
    <g id="完成" stroke="none" stroke-width="1" fill="none" fill-rule="evenodd">
        <g id="快讯详情" transform="translate(-521.000000, -669.000000)">
            <g id="grade4-icon" transform="translate(521.000000, 669.000000)">
                <polygon id="Star" fill="#F29700" points="9 13.5 3.70993273 16.2811529 4.72024568 10.3905765 0.440491353 6.21884705 6.35496636 5.35942353 9 0 11.6450336 5.35942353 17.5595086 6.21884705 13.2797543 10.3905765 14.2900673 16.2811529"></polygon>
                <polygon id="Star-Copy-2" fill="#F29700" points="65 13.5 59.7099327 16.2811529 60.7202457 10.3905765 56.4404914 6.21884705 62.3549664 5.35942353 65 0 67.6450336 5.35942353 73.5595086 6.21884705 69.2797543 10.3905765 70.2900673 16.2811529"></polygon>
                <polygon id="Star-Copy" fill="#F29700" points="37 13.5 31.7099327 16.2811529 32.7202457 10.3905765 28.4404914 6.21884705 34.3549664 5.35942353 37 0 39.6450336 5.35942353 45.5595086 6.21884705 41.2797543 10.3905765 42.2900673 16.2811529"></polygon>
                <polygon id="Star-Copy-3" fill="#F29700" points="93 13.5 87.7099327 16.2811529 88.7202457 10.3905765 84.4404914 6.21884705 90.3549664 5.35942353 93 0 95.6450336 5.35942353 101.559509 6.21884705 97.2797543 10.3905765 98.2900673 16.2811529"></polygon>
                <polygon id="Star-Copy-4" fill="#D8D8D8" points="125 13.5 119.709933 16.2811529 120.720246 10.3905765 116.440491 6.21884705 122.354966 5.35942353 125 0 127.645034 5.35942353 133.559509 6.21884705 129.279754 10.3905765 130.290067 16.2811529"></polygon>
            </g>
        </g>
    </g>
</svg>