<?xml version="1.0" encoding="UTF-8"?>
<svg width="32px" height="32px" viewBox="0 0 32 32" version="1.1" xmlns="http://www.w3.org/2000/svg" xmlns:xlink="http://www.w3.org/1999/xlink">
    <!-- Generator: Sketch 49.1 (51147) - http://www.bohemiancoding.com/sketch -->
    <title>LC_icon_user_line_1</title>
    <desc>Created with Sketch.</desc>
    <defs></defs>
    <g id="Symbols" stroke="none" stroke-width="1" fill="none" fill-rule="evenodd">
        <g id="导航/顶级" transform="translate(-1245.000000, -38.000000)" fill="#9B9B9B" fill-rule="nonzero">
            <g id="LC_icon_user_line_1" transform="translate(1245.000000, 38.000000)">
                <path d="M32,16.0018823 C32,7.18457516 24.8154248,0 15.9981177,0 C7.18081047,0 0,7.18457516 0,16.0018823 C0,20.8584052 2.20339869,25.2273464 5.63126797,28.1639216 C5.67283659,28.2054902 5.71440522,28.2470588 5.79377778,28.2848628 C8.56784312,30.6129673 12.1204706,32 16.0396863,32 C19.8757647,32 23.4283922,30.6129673 26.2024575,28.368 C26.3649673,28.3264314 26.4896732,28.2054902 26.5690458,28.0807843 C29.8797908,25.1026405 32,20.8168366 32,16.0018823 Z M1.47016994,16.0018823 C1.47016994,8.00094116 8.00094119,1.47016994 16.0018823,1.47016994 C24.0028235,1.47016994 30.5335947,8.00094119 30.5335947,16.0018823 C30.5335947,19.921098 28.9840523,23.4699085 26.4518693,26.085281 C26.0437124,24.1653333 24.8191895,20.8999738 21.0624836,18.7797647 C21.9204182,17.7177516 22.4079477,16.3307189 22.4079477,14.860549 C22.4079477,11.3494902 19.5507451,8.49228756 16.0396863,8.49228756 C12.5286274,8.49228756 9.67142481,11.3494902 9.67142481,14.860549 C9.67142481,16.3307189 10.2005228,17.676183 11.0168889,18.7797647 C7.22619606,20.8999738 6.00167319,24.1653856 5.63503266,26.085281 C3.06128103,23.5115294 1.47016994,19.921098 1.47016994,16.0018823 Z M11.1037908,14.8983007 C11.1037908,12.2036078 13.3071895,10.0002092 16.0018823,10.0002092 C18.6965752,10.0002092 20.8999738,12.2036078 20.8999738,14.8983007 C20.8999738,17.5929935 18.6965752,19.7963922 16.0018823,19.7963922 C13.3071895,19.7963922 11.1037908,17.5929935 11.1037908,14.8983007 Z M6.93892809,27.3476078 C7.02206534,26.1646536 7.67210456,22.1623007 12.0826667,19.9173333 C13.1862483,20.775268 14.5317124,21.2627974 16.0018823,21.2627974 C17.4720523,21.2627974 18.859085,20.7336994 19.9626667,19.8757647 C24.3316078,22.120732 25.023268,26.0399477 25.1479738,27.3060392 C22.6573595,29.3053595 19.4751373,30.5298301 16.0472157,30.5298301 C12.5740131,30.5335948 9.42954247,29.3506405 6.93892809,27.3476078 Z" id="Shape"></path>
            </g>
        </g>
    </g>
</svg>