<?xml version="1.0" encoding="UTF-8" standalone="no"?>
<svg width="199px" height="139px" viewBox="0 0 199 139" version="1.1" xmlns="http://www.w3.org/2000/svg" xmlns:xlink="http://www.w3.org/1999/xlink">
    <!-- Generator: Sketch 49.3 (51167) - http://www.bohemiancoding.com/sketch -->
    <title>Group 3</title>
    <desc>Created with Sketch.</desc>
    <defs></defs>
    <g id="Page-1" stroke="none" stroke-width="1" fill="none" fill-rule="evenodd">
        <g id="空页面" transform="translate(-421.000000, -457.000000)">
            <g id="Group-4" transform="translate(421.000000, 459.000000)">
                <g id="Group-3">
                    <path d="M161.181476,14.4883945 L161.181476,10.9970788 C161.181476,10.2250073 161.807363,9.59911964 162.579435,9.59911964 C163.351506,9.59911964 163.977394,10.2250073 163.977394,10.9970788 L163.977394,14.4883945 L167.46871,14.4883945 C168.240781,14.4883945 168.866669,15.1142821 168.866669,15.8863537 C168.866669,16.6584252 168.240781,17.2843129 167.46871,17.2843129 L163.977394,17.2843129 L163.977394,20.7756285 C163.977394,21.5477001 163.351506,22.1735877 162.579435,22.1735877 C161.807363,22.1735877 161.181476,21.5477001 161.181476,20.7756285 L161.181476,17.2843129 L157.69016,17.2843129 C156.918089,17.2843129 156.292201,16.6584252 156.292201,15.8863537 C156.292201,15.1142821 156.918089,14.4883945 157.69016,14.4883945 L161.181476,14.4883945 Z" id="Combined-Shape" fill="#FFE1AF" transform="translate(162.579435, 15.886354) rotate(-315.000000) translate(-162.579435, -15.886354) "></path>
                    <path d="M4.88927486,42.6377551 L4.88927486,39.1464394 C4.88927486,38.3743679 5.5151625,37.7484802 6.28723404,37.7484802 C7.05930558,37.7484802 7.68519323,38.3743679 7.68519323,39.1464394 L7.68519323,42.6377551 L11.1765089,42.6377551 C11.9485804,42.6377551 12.5744681,43.2636427 12.5744681,44.0357143 C12.5744681,44.8077858 11.9485804,45.4336735 11.1765089,45.4336735 L7.68519323,45.4336735 L7.68519323,48.9249891 C7.68519323,49.6970607 7.05930558,50.3229483 6.28723404,50.3229483 C5.5151625,50.3229483 4.88927486,49.6970607 4.88927486,48.9249891 L4.88927486,45.4336735 L1.39795918,45.4336735 C0.625887646,45.4336735 9.45514938e-17,44.8077858 0,44.0357143 C-9.45514938e-17,43.2636427 0.625887646,42.6377551 1.39795918,42.6377551 L4.88927486,42.6377551 Z" id="Combined-Shape-Copy" fill="#FFE1AF"></path>
                    <ellipse id="Oval-8" stroke="#FFE1AF" stroke-width="2.8" cx="20.9574468" cy="118.826531" rx="4.19148936" ry="4.19387755"></ellipse>
                    <path d="M193.8475,88.0714286 C192.88681,88.0714286 191.993451,88.9262877 191.405613,89.5679084 C190.817915,88.9261068 189.924824,88.0714286 188.963576,88.0714286 C187.231652,88.0714286 185.822695,89.3153071 185.822695,90.8442203 C185.822695,91.7563887 186.32736,92.3963169 186.732965,92.9104607 C187.911944,94.4038856 190.876326,96.2622737 191.00187,96.3406374 C191.122785,96.4160634 191.26431,96.4538615 191.405323,96.4538615 C191.546755,96.4538615 191.688012,96.4160421 191.808776,96.3406374 C191.934494,96.2622737 194.899132,94.403875 196.07768,92.9104607 C196.483541,92.3963169 196.988357,91.7563887 196.988357,90.8442203 C196.988334,89.3153178 195.579389,88.0714286 193.847477,88.0714286 L193.8475,88.0714286 Z" id="Shape" stroke="#FFE1AF" stroke-width="2.24" fill-rule="nonzero"></path>
                    <g id="Group-2" transform="translate(72.652482, 0.000000)" stroke="#F29700">
                        <path d="M17.9189092,27.9002358 C8.72021842,27.2948467 0,22.075948 0,14.5352747 C0,6.50766417 8.71680202,0 19.4695222,0 C30.2222425,0 38.9390445,6.50766417 38.9390445,14.5352747 C38.9390445,21.8775158 31.065177,27.0185692 22.2058074,27.8429011 L20.0265913,29.3568302 C20.0261119,29.3571632 20.0254762,29.3571639 20.0249962,29.3568319 L17.9189092,27.9002358 Z" id="Combined-Shape" stroke-width="2.8" fill="#FFFFFF"></path>
                        <path d="M14.9729575,8.3877551 L23.9598612,8.3877551 L23.9598612,9.29805411 L19.4789259,9.29805411 L19.4789259,10.1693403 C19.4538928,10.9756051 19.4038265,11.7428571 19.3162104,12.4450878 L24.9737041,12.4450878 L24.9737041,13.3423825 L21.0935646,13.3423825 L21.0935646,17.8808733 C21.0935646,18.29701 21.2938299,18.5180826 21.6943604,18.5180826 L23.2839659,18.5180826 C23.5843638,18.5180826 23.8096622,18.4270527 23.9473446,18.2579972 C24.1225767,18.0499288 24.2352259,17.4517323 24.2978088,16.4373991 L25.1489362,16.7234931 C25.0488035,17.9979117 24.8610549,18.7651637 24.5856901,19.0512577 C24.3478751,19.2853346 23.9723778,19.402373 23.4466814,19.402373 L21.4189957,19.402373 C20.5929014,19.402373 20.1923709,18.9602278 20.1923709,18.0759374 L20.1923709,13.3423825 L19.178528,13.3423825 C18.9782628,14.4737542 18.6653483,15.4490745 18.2397846,16.2813479 C17.4637567,17.6858092 16.2120988,18.7911723 14.4722944,19.5714286 L13.9716312,18.7391552 C15.6989191,17.9328904 16.8879941,16.8795444 17.5638894,15.5531087 C17.8642872,14.9028951 18.0895857,14.1616516 18.2523012,13.3423825 L14.1343467,13.3423825 L14.1343467,12.4450878 L18.4025001,12.4450878 C18.5026328,11.7428571 18.5526991,10.9756051 18.5652157,10.1693403 L18.5652157,9.29805411 L14.9729575,9.29805411 L14.9729575,8.3877551 Z" id="无" stroke-width="0.7" fill="#F29700"></path>
                    </g>
                    <g id="Group-5" transform="translate(39.120567, 127.214286)" fill="#FFE1AF">
                        <ellipse id="Oval-9-Copy" cx="59.3794326" cy="4.89285714" rx="59.3794326" ry="4.89285714"></ellipse>
                    </g>
                    <g id="Group" transform="translate(53.092199, 34.948980)">
                        <path d="M70.5044296,59.6052172 L85.5962138,74.6970015 C88.5988674,77.6996551 88.5988674,82.5679184 85.5962138,85.5705721 C82.5935602,88.5732257 77.7252968,88.5732257 74.7226432,85.5705721 L59.6466968,70.4946256 C53.5655188,74.5343944 46.2684242,76.8877551 38.4219858,76.8877551 C17.202109,76.8877551 0,59.6758448 0,38.4438776 C0,17.2119103 17.202109,0 38.4219858,0 C59.6418626,0 76.8439716,17.2119103 76.8439716,38.4438776 C76.8439716,46.2623565 74.5113421,53.5357103 70.5044296,59.6052172 Z M38.4219858,64.3061224 C52.6971757,64.3061224 64.2695035,52.727201 64.2695035,38.4438776 C64.2695035,24.1605541 52.6971757,12.5816327 38.4219858,12.5816327 C24.146796,12.5816327 12.5744681,24.1605541 12.5744681,38.4438776 C12.5744681,52.727201 24.146796,64.3061224 38.4219858,64.3061224 Z" id="Combined-Shape" stroke="#F29700" stroke-width="2.8" fill="#FFE1AF"></path>
                        <path d="M52.2469472,27.7649333 C49.0528665,23.6312381 44.0481034,20.9693878 38.4219858,20.9693878" id="Oval-17" stroke="#F29700" stroke-width="2.8" stroke-linecap="round"></path>
                        <ellipse id="Oval-2" fill="#F29700" cx="54.4893617" cy="32.1530612" rx="1.39716312" ry="1.39795918"></ellipse>
                    </g>
                </g>
            </g>
        </g>
    </g>
</svg>