<?xml version="1.0" encoding="UTF-8"?>
<svg width="14px" height="20px" viewBox="0 0 14 20" version="1.1" xmlns="http://www.w3.org/2000/svg" xmlns:xlink="http://www.w3.org/1999/xlink">
    <!-- Generator: Sketch 49.3 (51167) - http://www.bohemiancoding.com/sketch -->
    <title>phone</title>
    <desc>Created with Sketch.</desc>
    <defs></defs>
    <g id="Symbols" stroke="none" stroke-width="1" fill="none" fill-rule="evenodd">
        <g id="导航/次级" transform="translate(-1115.000000, -22.000000)" fill="#9B9B9B">
            <g id="Group-3" transform="translate(1040.000000, 15.000000)">
                <g id="导航/24/app下载" transform="translate(70.000000, 5.000000)">
                    <path d="M16.372434,2 L7.62756598,2 C6.87487396,2 6.24878069,2.26269033 5.74926673,2.78807373 C5.24975312,3.31345712 5,3.95952856 5,4.72630439 L5,19.2736956 C5,20.0404725 5.24975312,20.6865434 5.74926673,21.2119276 C6.24878069,21.7373118 6.87487396,22 7.62756598,22 L16.372434,22 C17.1251266,22 17.7512204,21.7373118 18.2507338,21.2119276 C18.7502472,20.6865434 19,20.0404725 19,19.2736956 L19,4.72630439 C19,3.95952856 18.7502472,3.31345712 18.2507338,2.78807373 C17.7512204,2.26269033 17.1251266,2 16.372434,2 Z M17.2551307,19.2736956 C17.2551307,19.5434874 17.1764429,19.7600277 17.0190622,19.9233227 C16.8616815,20.086618 16.6461397,20.1682642 16.372434,20.1682642 L7.62756598,20.1682642 C7.35385979,20.1682642 7.1383195,20.086618 6.98093829,19.9233227 C6.82355733,19.7600277 6.74486804,19.5434874 6.74486804,19.2736956 L6.74486804,4.72630439 C6.74486804,4.45651476 6.82355733,4.23642294 6.98093829,4.06602891 C7.1383195,3.89563489 7.35385979,3.81043787 7.62756598,3.81043787 L16.372434,3.81043787 C16.6461397,3.81043787 16.8616815,3.89563489 17.0190622,4.06602891 C17.1764429,4.23642294 17.2551307,4.45651476 17.2551307,4.72630439 L17.2551307,19.2736956 Z M11.3841655,16.8029822 C11.3020515,16.9023806 11.2370481,17.0017735 11.1891502,17.1011718 C11.1412497,17.2005701 11.1173021,17.3141643 11.1173021,17.4419598 C11.1173021,17.5839567 11.1412497,17.7046502 11.1891502,17.8040485 C11.2370481,17.9034441 11.3020515,17.9957404 11.3841655,18.0809374 C11.4799613,18.1803358 11.572336,18.2513315 11.6612897,18.29393 C11.7502459,18.3365285 11.8631472,18.3578264 11.9999987,18.3578264 C12.1368528,18.3578264 12.2497541,18.3365285 12.3387103,18.29393 C12.427664,18.2513315 12.5200387,18.1803358 12.6158371,18.0809374 C12.6979485,17.9957404 12.7629519,17.8927952 12.8108498,17.7720989 C12.8587503,17.6514027 12.8826979,17.5413582 12.8826979,17.4419598 C12.8826979,17.3567628 12.8587503,17.2538176 12.8108498,17.1331214 C12.7629519,17.0124251 12.6979485,16.9023806 12.6158371,16.8029822 C12.4379272,16.6325882 12.2326513,16.5473912 11.9999987,16.5473912 C11.7673487,16.5473912 11.5620728,16.6325882 11.3841655,16.8029822 Z" id="Page-1"></path>
                </g>
            </g>
        </g>
    </g>
</svg>