<?xml version="1.0" encoding="UTF-8"?>
<svg width="20px" height="20px" viewBox="0 0 20 20" version="1.1" xmlns="http://www.w3.org/2000/svg" xmlns:xlink="http://www.w3.org/1999/xlink">
    <!-- Generator: Sketch 49.1 (51147) - http://www.bohemiancoding.com/sketch -->
    <title>QQ</title>
    <desc>Created with Sketch.</desc>
    <defs></defs>
    <g id="完成" stroke="none" stroke-width="1" fill="none" fill-rule="evenodd" opacity="0.4">
        <g id="新闻详情" transform="translate(-643.000000, -2526.000000)" fill="#000000" fill-rule="nonzero">
            <g id="Group-16" transform="translate(0.000000, 2502.000000)">
                <g id="QQ" transform="translate(643.000000, 24.000000)">
                    <path d="M10.5062703,0.00263812709 C17.3465629,0.00263812709 17.6829806,6.44013536 17.6829806,6.44013536 C18.7205946,7.7942307 18.1599987,9.00971768 18.1599987,9.00971768 C21.4961159,14.1766268 19.3376112,15.6693534 18.7488397,15.7794187 C18.1599987,15.8895068 17.5988473,15.1435542 17.5988473,15.1435542 C17.5988473,15.1435542 17.4031457,15.8889136 16.9259887,16.2767432 C18.6647758,17.0771352 18.3558855,18.0724231 18.3558855,18.0724231 C18.3558855,18.0724231 17.9912458,21.0772243 10.7586473,19.1777992 L10.1416538,19.0671178 C3.20937943,21.5330006 2.34788063,18.2104155 2.34788063,18.2104155 C2.34788063,18.2104155 2.06730489,16.8296708 3.41299885,16.3039401 C2.62776183,15.8338353 2.34788063,14.8397338 2.34788063,14.8397338 C2.34788063,14.8397338 1.64668437,15.9723296 0.721610928,15.5579647 C-0.20362457,15.1435314 -0.764104661,11.4692119 2.71196464,8.81682961 C2.71196464,8.81682961 2.20788215,7.24187353 3.35715688,6.30225712 C3.35715688,6.3022571 3.66595457,0.00263812709 10.5062703,0.00263812709 M4.42227509,6.66161213 C2.90833756,7.93222303 3.91766011,9.20397474 3.91766011,9.20397474 C0.581566154,11.2211314 1.17036079,14.4809948 1.17036079,14.4809948 C1.17036079,14.4809948 1.70254948,14.2181295 2.08103385,13.4585328 C2.45956452,12.6988677 3.04833602,13.5828354 3.04833602,13.5828354 C3.04833602,13.5828354 3.41297568,15.3235283 4.5293981,16.0053902 C5.64588998,16.6872749 4.48020068,17.1223569 4.48020068,17.1223569 C4.48020068,17.1223569 3.25128403,17.1399482 3.35713371,17.962335 C3.46286762,18.7847446 7.42662799,19.8144165 9.8051898,17.9901479 L11.0666809,18.155976 C15.2163496,19.578132 17.2625221,18.2518268 17.3991636,17.9974035 C17.5358514,17.7429573 16.7723538,17.2435793 16.0705556,16.9541787 C15.368688,16.6646184 15.1881277,16.3595888 15.8089643,15.9522513 C16.4298935,15.5450507 16.6750703,14.7367871 17.0384366,13.900163 C17.401664,13.0634705 17.9490865,13.4721313 18.0194909,13.7072978 C18.0897564,13.9423274 18.6081929,14.7290525 18.6081929,14.7290525 C18.6081929,14.7290525 19.95986,13.3173919 17.1501205,9.14828042 C17.1501205,9.14828042 17.7598906,7.89909394 16.7295,6.88311173 C16.7295,6.88311173 16.4778176,1.02525984 10.3932436,1.02525984 C4.30864643,1.02523701 4.42227509,6.66161213 4.42227509,6.66161213" id="Shape"></path>
                </g>
            </g>
        </g>
    </g>
</svg>