<?xml version="1.0" encoding="UTF-8"?>
<svg width="16px" height="10px" viewBox="0 0 16 10" version="1.1" xmlns="http://www.w3.org/2000/svg" xmlns:xlink="http://www.w3.org/1999/xlink">
    <!-- Generator: Sketch 49.1 (51147) - http://www.bohemiancoding.com/sketch -->
    <title>rose-h</title>
    <desc>Created with Sketch.</desc>
    <defs></defs>
    <g id="完成" stroke="none" stroke-width="1" fill="none" fill-rule="evenodd">
        <g id="首页-copy-2" transform="translate(-1135.000000, -1259.000000)" fill="#D0021B" fill-rule="nonzero">
            <path d="M1135.20958,1267.58937 L1139.26401,1263.44208 C1139.90994,1262.78136 1140.96329,1262.78136 1141.60922,1263.44208 L1142.9607,1264.82451 C1143.28863,1265.15995 1143.80537,1265.15995 1144.1333,1264.82451 L1148.1778,1260.68738 L1145.6239,1260.68738 C1145.16679,1260.68738 1144.7991,1260.31128 1144.7991,1259.84369 C1144.7991,1259.3761 1145.16679,1259 1145.6239,1259 L1150.1752,1259 C1150.63232,1259 1151,1259.3761 1151,1259.84369 L1151,1264.49923 C1151,1264.96682 1150.63232,1265.34292 1150.1752,1265.34292 C1149.71808,1265.34292 1149.3504,1264.96682 1149.3504,1264.49923 L1149.3504,1261.87668 L1144.72954,1266.60338 C1144.08362,1267.2641 1143.03026,1267.2641 1142.38433,1266.60338 L1141.03286,1265.22094 C1140.70492,1264.8855 1140.18818,1264.8855 1139.86025,1265.22094 C1138.31278,1266.80796 1137.15217,1267.99823 1136.37843,1268.79174 C1136.26044,1268.91275 1135.55677,1269.19271 1135.20958,1268.79174 C1134.89085,1268.42362 1134.97239,1267.97166 1135.20958,1267.58937 Z" id="rose-h"></path>
        </g>
    </g>
</svg>