<?xml version="1.0" encoding="UTF-8"?>
<svg width="16px" height="10px" viewBox="0 0 16 10" version="1.1" xmlns="http://www.w3.org/2000/svg" xmlns:xlink="http://www.w3.org/1999/xlink">
    <!-- Generator: Sketch 49.1 (51147) - http://www.bohemiancoding.com/sketch -->
    <title>Rose</title>
    <desc>Created with Sketch.</desc>
    <defs></defs>
    <g id="完成" stroke="none" stroke-width="1" fill="none" fill-rule="evenodd">
        <g id="首页-copy-2" transform="translate(-1131.000000, -1484.000000)" fill="#999999" fill-rule="nonzero">
            <path d="M1131.20958,1492.58937 L1135.26401,1488.44208 C1135.90994,1487.78136 1136.96329,1487.78136 1137.60922,1488.44208 L1138.9607,1489.82451 C1139.28863,1490.15995 1139.80537,1490.15995 1140.1333,1489.82451 L1144.1778,1485.68738 L1141.6239,1485.68738 C1141.16679,1485.68738 1140.7991,1485.31128 1140.7991,1484.84369 C1140.7991,1484.3761 1141.16679,1484 1141.6239,1484 L1146.1752,1484 C1146.63232,1484 1147,1484.3761 1147,1484.84369 L1147,1489.49923 C1147,1489.96682 1146.63232,1490.34292 1146.1752,1490.34292 C1145.71808,1490.34292 1145.3504,1489.96682 1145.3504,1489.49923 L1145.3504,1486.87668 L1140.72954,1491.60338 C1140.08362,1492.2641 1139.03026,1492.2641 1138.38433,1491.60338 L1137.03286,1490.22094 C1136.70492,1489.8855 1136.18818,1489.8855 1135.86025,1490.22094 C1134.31278,1491.80796 1133.15217,1492.99823 1132.37843,1493.79174 C1132.26044,1493.91275 1131.55677,1494.19271 1131.20958,1493.79174 C1130.89085,1493.42362 1130.97239,1492.97166 1131.20958,1492.58937 Z" id="Rose"></path>
        </g>
    </g>
</svg>