<?xml version="1.0" encoding="UTF-8"?>
<svg width="21px" height="20px" viewBox="0 0 21 20" version="1.1" xmlns="http://www.w3.org/2000/svg" xmlns:xlink="http://www.w3.org/1999/xlink">
    <!-- Generator: Sketch 49.3 (51167) - http://www.bohemiancoding.com/sketch -->
    <title>search</title>
    <desc>Created with Sketch.</desc>
    <defs></defs>
    <g id="Symbols" stroke="none" stroke-width="1" fill="none" fill-rule="evenodd">
        <g id="导航/次级" transform="translate(-1042.000000, -22.000000)" fill="#9B9B9B">
            <g id="Group-3" transform="translate(1040.000000, 15.000000)">
                <g id="导航/24/搜索" transform="translate(0.000000, 5.000000)">
                    <path d="M22,20.2883938 L17.4340068,15.7866364 C17.9889059,15.0988637 18.4328178,14.2938682 18.7657548,13.3716289 C19.0986949,12.4493896 19.2651618,11.488087 19.2651618,10.4876881 C19.2651618,9.31535211 19.0352793,8.21336956 18.5755051,7.18171049 C18.1315871,6.15005143 17.5172479,5.25127227 16.7324632,4.48534302 C15.9476786,3.71941678 15.0321117,3.1098096 13.9857322,2.6565065 C12.9393527,2.2188305 11.8216462,2 10.6325824,2 C9.44351562,2 8.32580919,2.2188305 7.27942965,2.6565065 C6.23305012,3.1098096 5.31748325,3.71941678 4.53269921,4.48534302 C3.74791547,5.25127227 3.13357357,6.15005143 2.68965522,7.18171049 C2.22988278,8.21336956 2,9.31535211 2,10.4876881 C2,11.6756603 2.22988278,12.7854579 2.68965522,13.8171169 C3.13357357,14.848773 3.74791547,15.7475522 4.53269921,16.5134814 C5.31748325,17.2794107 6.23305012,17.8890178 7.27942965,18.3423209 C8.32580919,18.7799939 9.44351562,18.9988274 10.6325824,18.9988274 C11.6472496,18.9988274 12.6064187,18.8347023 13.5101079,18.5064491 C14.4137971,18.1781928 15.246132,17.7405258 16.0071339,17.1934361 L20.5731271,21.6951934 C20.6841082,21.8046117 20.806976,21.8827665 20.9417367,21.92966 C21.0764974,21.9765536 21.1914387,22 21.2865666,22 C21.3816915,22 21.4966327,21.9765536 21.6313935,21.92966 C21.7661542,21.8827665 21.889022,21.8046117 22,21.6951934 C22.2061059,21.4919879 22.3091573,21.2575237 22.3091573,20.9917936 C22.3091573,20.7260635 22.2061059,20.4915993 22,20.2883938 Z M4.04518446,10.4876881 C4.04518446,9.59671204 4.21165144,8.75264126 4.54458997,7.95544879 C4.89338284,7.17389244 5.36503959,6.48612873 5.95957148,5.89214266 C6.55410641,5.29815959 7.25564387,4.83704743 8.06421126,4.50879118 C8.85691943,4.16490483 9.71303707,3.99296465 10.6325824,3.99296465 C11.5521248,3.99296465 12.4082424,4.16490483 13.2009536,4.50879118 C14.009518,4.83704743 14.7110554,5.29815959 15.3055904,5.89214266 C15.9001222,6.48612873 16.3717802,7.17389244 16.7205734,7.95544879 C17.0535104,8.75264126 17.2199774,9.59671204 17.2199774,10.4876881 C17.2199774,11.3942974 17.0535104,12.2383711 16.7205734,13.0199275 C16.3876333,13.8014868 15.9120151,14.4970656 15.2937005,15.1066818 C15.2937005,15.1066818 15.2937005,15.1066818 15.2937005,15.1066818 C15.2937005,15.1066818 15.2937005,15.1066818 15.2937005,15.1066818 C14.691239,15.7006679 13.9936618,16.1656875 13.2009536,16.5017588 C12.4082424,16.8378271 11.5521248,17.0058628 10.6325824,17.0058628 C9.71303707,17.0058628 8.85691943,16.8339196 8.06421126,16.4900333 C7.25564387,16.1461499 6.55410641,15.6811272 5.95957148,15.0949592 C5.36503959,14.5087882 4.89338284,13.8171199 4.54458997,13.0199275 C4.21165144,12.2383711 4.04518446,11.3942974 4.04518446,10.4876881 Z" id="Page-1"></path>
                </g>
            </g>
        </g>
    </g>
</svg>