<?xml version="1.0" encoding="UTF-8"?>
<svg width="17px" height="16px" viewBox="0 0 17 16" version="1.1" xmlns="http://www.w3.org/2000/svg" xmlns:xlink="http://www.w3.org/1999/xlink">
    <!-- Generator: Sketch 49.3 (51167) - http://www.bohemiancoding.com/sketch -->
    <title>Page 1</title>
    <desc>Created with Sketch.</desc>
    <defs></defs>
    <g id="完成" stroke="none" stroke-width="1" fill="none" fill-rule="evenodd">
        <g id="搜索" transform="translate(-892.000000, -84.000000)" fill="#DCDCDC">
            <path d="M908,98.630715 L904.347205,95.0293092 C904.791125,94.479091 905.146254,93.8350946 905.412604,93.0973031 C905.678956,92.3595117 905.812129,91.5904696 905.812129,90.7901505 C905.812129,89.8522817 905.628223,88.9706957 905.260404,88.1453684 C904.90527,87.3200411 904.413798,86.6010178 903.785971,85.9882744 C903.158143,85.3755334 902.425689,84.8878477 901.588586,84.5252052 C900.751482,84.1750644 899.857317,84 898.906066,84 C897.954812,84 897.060647,84.1750644 896.223544,84.5252052 C895.38644,84.8878477 894.653987,85.3755334 894.026159,85.9882744 C893.398332,86.6010178 892.906859,87.3200411 892.551724,88.1453684 C892.183906,88.9706957 892,89.8522817 892,90.7901505 C892,91.7405282 892.183906,92.6283663 892.551724,93.4536936 C892.906859,94.2790184 893.398332,94.9980417 894.026159,95.6107851 C894.653987,96.2235285 895.38644,96.7112143 896.223544,97.0738568 C897.060647,97.4239952 897.954812,97.599062 898.906066,97.599062 C899.7178,97.599062 900.485135,97.4677619 901.208086,97.2051593 C901.931038,96.9425543 902.596906,96.5924207 903.205707,96.1547489 L906.858502,99.7561547 C906.947287,99.8436894 907.045581,99.9062132 907.153389,99.943728 C907.261198,99.9812429 907.353151,100 907.429253,100 C907.505353,100 907.597306,99.9812429 907.705115,99.943728 C907.812923,99.9062132 907.911218,99.8436894 908,99.7561547 C908.164885,99.5935903 908.247326,99.406019 908.247326,99.1934349 C908.247326,98.9808508 908.164885,98.7932794 908,98.630715 Z M893.636148,90.7901505 C893.636148,90.0773696 893.769321,89.402113 894.035672,88.764359 C894.314706,88.139114 894.692032,87.588903 895.167657,87.1137141 C895.643285,86.6385277 896.204515,86.2696379 896.851369,86.0070329 C897.485536,85.7319239 898.17043,85.5943717 898.906066,85.5943717 C899.6417,85.5943717 900.326594,85.7319239 900.960763,86.0070329 C901.607614,86.2696379 902.168844,86.6385277 902.644472,87.1137141 C903.120098,87.588903 903.497424,88.139114 903.776459,88.764359 C904.042808,89.402113 904.175982,90.0773696 904.175982,90.7901505 C904.175982,91.5154379 904.042808,92.1906969 903.776459,92.815942 C903.510107,93.4411895 903.129612,93.9976525 902.63496,94.4853454 C902.63496,94.4853454 902.63496,94.4853454 902.63496,94.4853454 C902.63496,94.4853454 902.63496,94.4853454 902.63496,94.4853454 C902.152991,94.9605343 901.594929,95.33255 900.960763,95.6014071 C900.326594,95.8702617 899.6417,96.0046902 898.906066,96.0046902 C898.17043,96.0046902 897.485536,95.8671357 896.851369,95.5920266 C896.204515,95.3169199 895.643285,94.9449018 895.167657,94.4759674 C894.692032,94.0070305 894.314706,93.453696 894.035672,92.815942 C893.769321,92.1906969 893.636148,91.5154379 893.636148,90.7901505 Z" id="Page-1"></path>
        </g>
    </g>
</svg>