<?xml version="1.0" encoding="UTF-8"?>
<svg width="20px" height="20px" viewBox="0 0 20 20" version="1.1" xmlns="http://www.w3.org/2000/svg" xmlns:xlink="http://www.w3.org/1999/xlink">
    <!-- Generator: Sketch 49.1 (51147) - http://www.bohemiancoding.com/sketch -->
    <title>collection-iconh</title>
    <desc>Created with Sketch.</desc>
    <defs></defs>
    <g id="完成" stroke="none" stroke-width="1" fill="none" fill-rule="evenodd" opacity="0.4">
        <g id="新闻详情" transform="translate(-146.000000, -2526.000000)" fill="#F39700" fill-rule="nonzero">
            <g id="Group-16" transform="translate(0.000000, 2502.000000)">
                <g id="collection-iconh" transform="translate(146.000000, 24.000000)">
                    <path d="M14.9831468,19.3729543 C14.6725035,19.3729543 14.3718407,19.2974213 14.0873963,19.1476142 L10.4457588,17.2152284 C10.1628372,17.0678332 9.82669218,17.0678332 9.54377054,17.2152284 L5.90088555,19.1476142 C5.09803099,19.5650828 4.1159803,19.3694983 3.53051518,18.675533 C3.1641113,18.2414297 3.01064153,17.6640476 3.11258146,17.1031878 L3.80872181,13.0105584 C3.86250002,12.6928041 3.75747103,12.3687347 3.52802005,12.1444467 L0.581275413,9.24523858 C0.055374081,8.73071595 -0.13308998,7.95828641 0.0959732691,7.25620305 C0.319397423,6.55275396 0.921838841,6.04021389 1.64669452,5.9368934 L5.71998886,5.34018274 C6.03556898,5.29344662 6.30808534,5.09285528 6.44856586,4.80389848 L8.27000836,1.08012183 C8.59686996,0.414172589 9.25683097,0 9.99414091,0 C10.7314509,0 11.3914119,0.414172589 11.7182735,1.08012183 L13.539716,4.80389848 C13.6805367,5.09256693 13.9528811,5.29303169 14.268293,5.34018274 L18.3428349,5.9368934 C19.0675632,6.04050127 19.6698728,6.55292919 19.8935561,7.25620305 C20.1216867,7.95854838 19.932811,8.73067974 19.4070064,9.24523858 L16.4615093,12.1444467 C16.231487,12.3683739 16.1263571,12.6927545 16.1808076,13.0105584 L16.8769479,17.1031878 C16.9742579,17.6772386 16.8270454,18.2349239 16.4577666,18.675533 C16.0926861,19.1167004 15.5527319,19.3720716 14.9831468,19.3729543 Z" id="Shape"></path>
                </g>
            </g>
        </g>
    </g>
</svg>