<?xml version="1.0" encoding="UTF-8"?>
<svg width="20px" height="20px" viewBox="0 0 20 20" version="1.1" xmlns="http://www.w3.org/2000/svg" xmlns:xlink="http://www.w3.org/1999/xlink">
    <!-- Generator: Sketch 49.1 (51147) - http://www.bohemiancoding.com/sketch -->
    <title>collection</title>
    <desc>Created with Sketch.</desc>
    <defs></defs>
    <g id="完成" stroke="none" stroke-width="1" fill="none" fill-rule="evenodd" opacity="0.4">
        <g id="新闻详情" transform="translate(-146.000000, -2526.000000)" fill="#4D4D4D" fill-rule="nonzero">
            <g id="Group-16" transform="translate(0.000000, 2502.000000)">
                <g id="collection" transform="translate(146.000000, 24.000000)">
                    <path d="M14.9831468,19.3729543 C14.6725035,19.3729543 14.3718407,19.2974213 14.0873963,19.1476142 L10.4457588,17.2152284 C10.1628372,17.0678332 9.82669218,17.0678332 9.54377054,17.2152284 L5.90088555,19.1476142 C5.09803099,19.5650828 4.1159803,19.3694983 3.53051518,18.675533 C3.1641113,18.2414297 3.01064153,17.6640476 3.11258146,17.1031878 L3.80872181,13.0105584 C3.86250002,12.6928041 3.75747103,12.3687347 3.52802005,12.1444467 L0.581275413,9.24523858 C0.055374081,8.73071595 -0.13308998,7.95828641 0.0959732691,7.25620305 C0.319397423,6.55275396 0.921838841,6.04021389 1.64669452,5.9368934 L5.71998886,5.34018274 C6.03556898,5.29344662 6.30808534,5.09285528 6.44856586,4.80389848 L8.27000836,1.08012183 C8.59686996,0.414172589 9.25683097,0 9.99414091,0 C10.7314509,0 11.3914119,0.414172589 11.7182735,1.08012183 L13.539716,4.80389848 C13.6805367,5.09256693 13.9528811,5.29303169 14.268293,5.34018274 L18.3428349,5.9368934 C19.0675632,6.04050127 19.6698728,6.55292919 19.8935561,7.25620305 C20.1216867,7.95854838 19.932811,8.73067974 19.4070064,9.24523858 L16.4615093,12.1444467 C16.231487,12.3683739 16.1263571,12.6927545 16.1808076,13.0105584 L16.8769479,17.1031878 C16.9742579,17.6772386 16.8270454,18.2349239 16.4577666,18.675533 C16.0926861,19.1167004 15.5527319,19.3720716 14.9831468,19.3729543 Z M9.99414091,16.141401 C10.3060317,16.141401 10.6154275,16.2194518 10.8873963,16.3642234 L14.5302813,18.297868 C14.9368703,18.5093268 15.4343357,18.4090355 15.7291896,18.0561624 C15.9122535,17.8373077 15.9886834,17.5472868 15.9375327,17.2655838 L15.2413924,13.1716954 C15.1345744,12.5428196 15.3412465,11.9011715 15.7940629,11.4558376 L18.73956,8.55662944 C19.0091751,8.29968046 19.1060985,7.90797771 18.9878251,7.55329949 C18.8773158,7.19690616 18.5723543,6.93727552 18.2056029,6.88735025 L14.131061,6.29063959 C13.5056485,6.19879824 12.9649992,5.80245895 12.6851351,5.2306599 L10.8636926,1.50562437 C10.6965191,1.16320812 10.370905,0.960527919 9.99414091,0.960527919 C9.61737678,0.960527919 9.29051518,1.16320812 9.12334169,1.50562437 L7.30189919,5.22940102 C7.02176508,5.80172923 6.4806922,6.1985078 5.85472571,6.29063959 L1.78267892,6.88860914 C1.41572613,6.93713675 1.11029385,7.19667667 1.0004567,7.55329949 C0.881146393,7.90685126 0.976627365,8.29813939 1.24497912,8.55537056 L4.19172376,11.4558376 C4.64458925,11.9014822 4.85168477,12.5435127 4.74439432,13.1716954 L4.04825397,17.2655838 C3.99835144,17.5551269 4.07320524,17.8371168 4.25659705,18.0561624 C4.55170051,18.4086092 5.04884837,18.5088366 5.45550543,18.297868 L9.09839042,16.3642234 C9.37534949,16.2194518 9.68225007,16.141401 9.99414091,16.141401 Z" id="Shape"></path>
                </g>
            </g>
        </g>
    </g>
</svg>