<?xml version="1.0" encoding="UTF-8"?>
<svg width="24px" height="21px" viewBox="0 0 24 21" version="1.1" xmlns="http://www.w3.org/2000/svg" xmlns:xlink="http://www.w3.org/1999/xlink">
    <!-- Generator: Sketch 49.1 (51147) - http://www.bohemiancoding.com/sketch -->
    <title>weibo</title>
    <desc>Created with Sketch.</desc>
    <defs></defs>
    <g id="完成" stroke="none" stroke-width="1" fill="none" fill-rule="evenodd">
        <g id="新闻详情" transform="translate(-764.000000, -2524.000000)" fill="#9B9B9B" fill-rule="nonzero">
            <g id="Group-16" transform="translate(0.000000, 2502.000000)">
                <g id="weibo" transform="translate(764.000000, 22.000000)">
                    <path d="M16.6486678,10.4961994 C16.7075784,10.3783784 16.7075784,10.2605573 16.7664889,10.1427363 C16.9432205,9.25907832 16.8843099,8.55215197 16.4130257,7.96304668 C16.000652,7.37394139 15.3526362,7.07938875 14.4100677,7.02047822 C14.3511572,7.02047822 14.2333361,7.02047822 14.1744256,7.02047822 C13.997694,7.02047822 13.8209624,7.02047822 13.6442308,7.07938875 C12.9373045,7.25612033 12.2303781,7.43285192 11.5234518,7.60958351 C11.5823623,7.25612033 11.5823623,6.90265716 11.5823623,6.54919398 C11.5234518,5.3709834 10.6987044,4.54623599 9.5204938,4.54623599 L9.46158327,4.54623599 C8.87247798,4.54623599 8.16555163,4.60514652 7.51753581,4.89969917 C4.39527776,6.25464134 2.03885659,8.6110625 0.566093366,11.8511416 C-0.3764751,13.9130101 -0.140832984,15.9159681 1.27301972,17.5065524 C1.92103554,18.2134788 2.68687242,18.8614946 3.57053035,19.3327788 C5.51457782,20.4520789 7.69426739,20.687721 9.34376221,20.7466315 L9.46158327,20.7466315 L9.57940433,20.7466315 C9.87395697,20.687721 10.1095991,20.687721 10.4041517,20.687721 C11.0521676,20.6288105 11.7001834,20.5698999 12.3481992,20.4520789 C15.0580835,19.9218841 17.0610415,18.7436735 18.5338048,16.9174471 C19.7709259,15.3268628 19.7709259,13.9719207 19.5352838,13.2060838 C19.12291,12.3224258 18.4748942,11.2031258 16.6486678,10.4961994 Z M17.4734152,16.1516102 C16.1184731,17.9189261 14.1744256,18.8614946 11.994736,19.2738683 C11.1110781,19.4505999 10.2274201,19.5095104 9.34376221,19.5684209 C7.51753581,19.5095104 5.6913094,19.2149578 4.10072512,18.3312998 C3.39379877,17.9189261 2.68687242,17.3298208 2.09776712,16.7407155 C0.919556541,15.4446839 0.919556541,13.9130101 1.62648289,12.3813364 C2.98142506,9.43580991 5.10220411,7.25612033 8.1066411,5.96008869 C8.57792533,5.7833571 9.10812009,5.72444658 9.57940433,5.72444658 C9.57940433,5.72444658 9.57940433,5.72444658 9.63831486,5.72444658 C10.1685096,5.72444658 10.5219728,6.07790975 10.5219728,6.60810451 C10.5219728,7.07938875 10.4630623,7.49176245 10.4041517,7.96304668 C10.2863307,8.6110625 10.5219728,8.96452568 11.0521676,8.96452568 C11.1699886,8.96452568 11.2878097,8.96452568 11.4645413,8.90561515 C12.3481992,8.66997303 13.1729466,8.43433092 14.0566045,8.1986888 C14.1155151,8.1986888 14.1744256,8.1986888 14.2922467,8.1986888 C14.3511572,8.1986888 14.4100677,8.1986888 14.4689782,8.1986888 C15.5882783,8.25759933 15.9417415,8.84670462 15.7060994,9.90709415 C15.6471888,10.0838257 15.5882783,10.2016468 15.5882783,10.3194678 C15.4115467,10.9674837 15.5293678,11.3209468 16.1773836,11.556589 C16.1773836,11.556589 16.2362941,11.556589 16.2362941,11.556589 C18.4748942,12.4402469 19.005089,14.1486522 17.4734152,16.1516102 Z" id="Shape"></path>
                    <path d="M17.2377731,3.72148858 C16.9432205,3.72148858 16.6486678,3.9571307 16.6486678,4.31059388 C16.6486678,4.60514652 16.8843099,4.89969917 17.2377731,4.89969917 C17.4145047,4.89969917 18.8283574,5.01752023 19.12291,6.60810451 C19.1818206,6.90265716 19.4174627,7.07938875 19.7120153,7.07938875 C19.7709259,7.07938875 19.7709259,7.07938875 19.8298364,7.07938875 C20.124389,7.02047822 20.3600312,6.72592557 20.3011206,6.3724624 C19.8298364,4.31059388 18.0625205,3.72148858 17.2377731,3.72148858 Z" id="Shape"></path>
                    <path d="M17.3555942,0.0101252472 C17.0610415,-0.048785282 16.7075784,0.186856835 16.7075784,0.48140948 C16.6486678,0.775962126 16.8843099,1.1294253 17.1788626,1.1294253 C17.4145047,1.18833583 22.7164523,1.95417271 22.3040786,6.60810451 C22.3040786,6.90265716 22.5397207,7.1972098 22.8342734,7.25612033 C22.8342734,7.25612033 22.8931839,7.25612033 22.8931839,7.25612033 C23.1877366,7.25612033 23.4233787,7.02047822 23.4822892,6.72592557 C23.8946629,2.1309043 19.6531048,0.304677893 17.3555942,0.0101252472 Z" id="Shape"></path>
                </g>
            </g>
        </g>
    </g>
</svg>