<?xml version="1.0" encoding="UTF-8"?>
<svg width="24px" height="20px" viewBox="0 0 24 20" version="1.1" xmlns="http://www.w3.org/2000/svg" xmlns:xlink="http://www.w3.org/1999/xlink">
    <!-- Generator: Sketch 49.1 (51147) - http://www.bohemiancoding.com/sketch -->
    <title>Shape</title>
    <desc>Created with Sketch.</desc>
    <defs></defs>
    <g id="完成" stroke="none" stroke-width="1" fill="none" fill-rule="evenodd">
        <g id="新闻详情" transform="translate(-827.000000, -2526.000000)" fill="#9B9B9B" fill-rule="nonzero">
            <g id="Group-16" transform="translate(0.000000, 2502.000000)">
                <path d="M838.690862,29.979182 C839.308111,29.979182 839.720483,29.5624858 839.720483,28.9419493 C839.720483,28.3143677 839.308771,27.9084362 838.690862,27.9084362 C838.072635,27.9084362 837.452698,28.3143924 837.452698,28.9419493 C837.453382,29.562806 838.073613,29.979182 838.690862,29.979182 Z M832.931473,27.9084116 C832.314224,27.9084116 831.690328,28.3143677 831.690328,28.9419247 C831.690328,29.5624365 832.314248,29.9791574 832.931473,29.9791574 C833.546376,29.9791574 833.958112,29.5624611 833.958112,28.9419247 C833.95777,28.3143431 833.546743,27.9084116 832.931473,27.9084116 Z M850.999976,36.6195946 C850.999976,33.3383951 847.98049,30.54252 844.274062,30.2516012 C844.279071,30.2109071 844.281417,30.1685132 844.2724,30.1261687 C843.529375,26.6334187 839.80325,24 835.604664,24 C830.860258,24 827,27.3350232 827,31.4341455 C827,33.6333783 828.113683,35.6150256 830.224339,37.1775872 L829.488645,39.4070943 C829.441262,39.552061 829.484319,39.7118077 829.598757,39.8123607 C829.668475,39.8729093 829.756252,39.9045137 829.844982,39.9045137 C829.902042,39.9045137 829.959762,39.891064 830.01279,39.8644847 L832.775029,38.4711043 L833.115336,38.5407425 C833.965785,38.7169689 834.700136,38.8696705 835.604664,38.8696705 C835.870903,38.8696705 836.603592,38.7714577 836.66532,38.6927544 C837.661242,41.2051006 840.406448,43.0186012 843.636481,43.0186012 C844.463911,43.0186012 845.301361,42.8174953 846.053061,42.6277699 L848.182387,43.8011999 C848.238763,43.8321639 848.300832,43.8482741 848.362218,43.8482741 C848.446305,43.8482741 848.530367,43.8196748 848.597764,43.7642007 C848.716209,43.6673428 848.764936,43.5079163 848.720877,43.3619396 L848.177036,41.5390537 C850.00007,40.0867999 851,38.3493421 851,36.6195946 L850.999976,36.6195946 Z M836.316973,37.857613 C836.081744,37.8781325 835.843192,37.8882321 835.606302,37.8882321 C834.80756,37.8882321 834.131931,37.7490049 833.35054,37.5862283 L832.896455,37.4937305 C832.81838,37.4769059 832.735979,37.4876953 832.664232,37.5249901 L830.668063,38.5322933 L831.18688,36.9613072 C831.237611,36.8075956 831.181871,36.6397692 831.050767,36.5469511 C829.045239,35.1377562 828.028936,33.4211382 828.028936,31.4455753 C828.028936,27.8939765 831.427779,25.0035837 835.605984,25.0035837 C839.299412,25.0035837 842.569472,27.2687351 843.244417,30.2815306 C839.371794,30.3326693 836.238237,33.0770854 836.238237,36.4477283 C836.238237,36.9377578 836.311988,37.4126378 836.43642,37.8707179 C836.398738,37.861308 836.359004,37.8538934 836.316997,37.857613 L836.316973,37.857613 Z M847.327539,40.8862477 C847.208409,40.9767256 847.158069,41.1327527 847.200761,41.2767341 L847.538086,42.4074747 L846.153814,41.644016 C846.101104,41.6147517 846.041698,41.5996023 845.982659,41.5996023 C845.953628,41.5996023 845.924279,41.6032973 845.895566,41.6110321 C845.1532,41.8000677 844.384834,41.9951385 843.636799,41.9951385 C840.162227,41.9951385 837.335597,39.5880502 837.335597,36.6297435 C837.335597,33.6714121 840.161909,31.2653338 843.636799,31.2653338 C847.044976,31.2653338 849.925,33.721861 849.925,36.6297435 C849.925,38.1045368 849.002804,39.6166495 847.327588,40.886297 L847.327539,40.8862477 Z M841.366986,33.9225975 C840.955275,33.9225975 840.543563,34.3406485 840.543563,34.7550046 C840.543563,35.1723905 840.955275,35.5843818 841.366986,35.5843818 C841.985555,35.5843818 842.39426,35.1723905 842.39426,34.7550046 C842.39426,34.3399834 841.985555,33.9225975 841.366986,33.9225975 Z M845.890874,33.9225975 C845.48515,33.9225975 845.073439,34.3406485 845.073439,34.7550046 C845.073439,35.1723905 845.48515,35.5843818 845.890874,35.5843818 C846.507439,35.5843818 846.923501,35.1723905 846.923501,34.7550046 C846.923501,34.3399834 846.508124,33.9225975 845.890874,33.9225975 Z" id="Shape"></path>
            </g>
        </g>
    </g>
</svg>