<svg width="159" height="181" viewBox="0 0 159 181" xmlns="http://www.w3.org/2000/svg" xmlns:xlink="http://www.w3.org/1999/xlink"><title>Group 12</title><defs><circle id="a" cx="75" cy="75" r="75"/></defs><g fill="none" fill-rule="evenodd"><path d="M124 21h2a1 1 0 1 1 0 2h-2v2a1 1 0 1 1-2 0v-2h-2a1 1 0 1 1 0-2h2v-2a1 1 0 1 1 2 0v2zM5 84h2a1 1 0 0 1 0 2H5v2a1 1 0 0 1-2 0v-2H1a1 1 0 0 1 0-2h2v-2a1 1 0 0 1 2 0v2z" fill="#FFEDC3"/><path d="M47 4h1a1 1 0 0 1 0 2h-1v1a1 1 0 0 1-2 0V6h-1a1 1 0 0 1 0-2h1V3a1 1 0 0 1 2 0v1z" fill="#FFF7E3"/><path d="M8.414 34l1.414 1.414a1 1 0 0 1-1.414 1.414L7 35.414l-1.414 1.414a1 1 0 0 1-1.414-1.414L5.586 34l-1.414-1.414a1 1 0 0 1 1.414-1.414L7 32.586l1.414-1.414a1 1 0 0 1 1.414 1.414L8.414 34zm141 95l1.414 1.414a1 1 0 1 1-1.414 1.414L148 130.414l-1.414 1.414a1 1 0 1 1-1.414-1.414l1.414-1.414-1.414-1.414a1 1 0 1 1 1.414-1.414l1.414 1.414 1.414-1.414a1 1 0 1 1 1.414 1.414L149.414 129z" fill="#FFEDC3"/><path d="M150.384 39.5l.884.884a.625.625 0 1 1-.884.884l-.884-.884-.884.884a.625.625 0 1 1-.884-.884l.884-.884-.884-.884a.625.625 0 1 1 .884-.884l.884.884.884-.884a.625.625 0 1 1 .884.884l-.884.884z" fill="#FFF7E3"/><circle fill="#FFF7E3" cx="157" cy="37" r="2"/><circle fill="#FFEDC3" cx="36" cy="2" r="2"/><circle fill="#FFEDC3" cx="156.5" cy="57.5" r="1.5"/><circle fill="#FFF7E3" cx="156.5" cy="121.5" r="1.5"/><g transform="translate(1 31)"><mask id="b" fill="#fff"><use xlink:href="#a"/></mask><use fill="#FFF7E3" xlink:href="#a"/><g mask="url(#b)" fill="#FFC56D"><path d="M72 104h6v60h-6z"/><path d="M66.008 104h6L46.14 164h-6zM84 104h-6l25.867 60h6z"/></g></g><g transform="translate(17 21)"><path d="M28.288 55c-9.82 0-17.781-7.967-17.781-17.794 0-9.828 7.96-17.794 17.78-17.794s17.781 7.966 17.781 17.794c0 9.827-7.96 17.794-17.78 17.794zm0-3.235c8.034 0 14.548-6.519 14.548-14.56 0-8.04-6.514-14.558-14.548-14.558-8.035 0-14.548 6.518-14.548 14.559 0 8.04 6.513 14.559 14.548 14.559z" fill="#FFCC34"/><path d="M70.315 55c-15.176 0-27.48-12.312-27.48-27.5S55.14 0 70.316 0c15.177 0 27.48 12.312 27.48 27.5S85.492 55 70.315 55zm0-3.235c13.391 0 24.247-10.864 24.247-24.265S83.706 3.235 70.315 3.235c-13.39 0-24.247 10.864-24.247 24.265s10.856 24.265 24.247 24.265z" fill="#FFC56D"/><g transform="translate(50.918 8.897)" fill="#FFCC34"><ellipse cx="19.397" cy="6.471" rx="6.466" ry="6.471"/><g transform="translate(0 10.515)"><ellipse cx="6.466" cy="6.471" rx="6.466" ry="6.471"/><ellipse cx="32.329" cy="6.471" rx="6.466" ry="6.471"/></g><g transform="translate(5.658 24.265)"><ellipse cx="6.466" cy="6.471" rx="6.466" ry="6.471"/><ellipse cx="21.014" cy="6.471" rx="6.466" ry="6.471"/></g></g><path d="M28.288 46.912c-5.357 0-9.699-4.346-9.699-9.706 0-5.36 4.342-9.706 9.699-9.706 5.356 0 9.698 4.345 9.698 9.706 0 5.36-4.342 9.706-9.698 9.706zm0-3.236a6.468 6.468 0 0 0 6.465-6.47 6.468 6.468 0 0 0-6.465-6.47 6.468 6.468 0 0 0-6.466 6.47 6.468 6.468 0 0 0 6.466 6.47z" fill="#FFC56D"/><g transform="translate(0 47.676)"><path fill="#FFCC34" d="M10.507 21.838h10.507v16.985H10.507z"/><rect fill="#FF9372" y="16.985" width="10.507" height="25.882" rx="3.235"/><rect fill="#FF9372" x="30.712" y="8.897" width="62.233" height="57.426" rx="1.618"/><path d="M20.205 16.176h10.507V62.28h-2.418a8.088 8.088 0 0 1-8.089-8.088V16.176zm72.74-1.617h8.89v19.412h-8.89z" fill="#FFC56D"/><path d="M101.836 14.559L115.21.505A1.618 1.618 0 0 1 118 1.62v45.29a1.618 1.618 0 0 1-2.79 1.115L101.837 33.97V14.559z" fill="#FFCC34"/></g><ellipse fill="#FF9372" cx="27.075" cy="94.184" rx="2.021" ry="2.022"/><ellipse fill="#FF9372" cx="27.075" cy="100.654" rx="2.021" ry="2.022"/><ellipse fill="#FFC56D" cx="70.315" cy="68.706" rx="3.233" ry="3.235"/><ellipse fill="#FFC56D" cx="80.822" cy="75.176" rx="2.425" ry="2.426"/></g></g></svg>