<svg width="159" height="181" viewBox="0 0 159 181" xmlns="http://www.w3.org/2000/svg"><title>企业</title><g fill="none" fill-rule="evenodd"><circle fill="#FFF7E3" cx="76" cy="106" r="75"/><circle fill="#FFEDC3" cx="76" cy="106" r="50"/><path d="M124 21h2a1 1 0 1 1 0 2h-2v2a1 1 0 1 1-2 0v-2h-2a1 1 0 1 1 0-2h2v-2a1 1 0 1 1 2 0v2zM5 84h2a1 1 0 0 1 0 2H5v2a1 1 0 0 1-2 0v-2H1a1 1 0 0 1 0-2h2v-2a1 1 0 0 1 2 0v2z" fill="#FFEDC3"/><path d="M47 4h1a1 1 0 0 1 0 2h-1v1a1 1 0 0 1-2 0V6h-1a1 1 0 0 1 0-2h1V3a1 1 0 0 1 2 0v1z" fill="#FFF7E3"/><path d="M8.414 34l1.414 1.414a1 1 0 0 1-1.414 1.414L7 35.414l-1.414 1.414a1 1 0 0 1-1.414-1.414L5.586 34l-1.414-1.414a1 1 0 0 1 1.414-1.414L7 32.586l1.414-1.414a1 1 0 0 1 1.414 1.414L8.414 34zm141 95l1.414 1.414a1 1 0 1 1-1.414 1.414L148 130.414l-1.414 1.414a1 1 0 1 1-1.414-1.414l1.414-1.414-1.414-1.414a1 1 0 1 1 1.414-1.414l1.414 1.414 1.414-1.414a1 1 0 1 1 1.414 1.414L149.414 129z" fill="#FFEDC3"/><path d="M150.384 39.5l.884.884a.625.625 0 1 1-.884.884l-.884-.884-.884.884a.625.625 0 1 1-.884-.884l.884-.884-.884-.884a.625.625 0 1 1 .884-.884l.884.884.884-.884a.625.625 0 1 1 .884.884l-.884.884z" fill="#FFF7E3"/><circle fill="#FFF7E3" cx="157" cy="37" r="2"/><circle fill="#FFEDC3" cx="36" cy="2" r="2"/><circle fill="#FFEDC3" cx="156.5" cy="57.5" r="1.5"/><circle fill="#FFF7E3" cx="156.5" cy="121.5" r="1.5"/><path d="M136 151.007a75.3 75.3 0 0 1-28 22.843V97h28v54.007z" fill="#FFCC34"/><circle fill="#FFAE96" cx="84" cy="34" r="13"/><path d="M57 178.572c-16.61-4.336-30.978-14.225-41-27.565V83h41v95.572z" fill="#FFC56D"/><path d="M108 173.85c-9.706 4.586-20.553 7.15-32 7.15a75.123 75.123 0 0 1-19-2.428V44h51v129.85z" fill="#FF9372"/><path d="M115 170.075a74.821 74.821 0 0 1-7 3.775V97h7v73.075z" fill="#DCA013" opacity=".2"/><path d="M66 61h3a1 1 0 0 1 1 1v3a1 1 0 0 1-1 1h-3a1 1 0 0 1-1-1v-3a1 1 0 0 1 1-1zm0 18h3a1 1 0 0 1 1 1v3a1 1 0 0 1-1 1h-3a1 1 0 0 1-1-1v-3a1 1 0 0 1 1-1zm10-18h3a1 1 0 0 1 1 1v3a1 1 0 0 1-1 1h-3a1 1 0 0 1-1-1v-3a1 1 0 0 1 1-1zm0 18h3a1 1 0 0 1 1 1v3a1 1 0 0 1-1 1h-3a1 1 0 0 1-1-1v-3a1 1 0 0 1 1-1zm10-18h3a1 1 0 0 1 1 1v3a1 1 0 0 1-1 1h-3a1 1 0 0 1-1-1v-3a1 1 0 0 1 1-1zm0 18h3a1 1 0 0 1 1 1v3a1 1 0 0 1-1 1h-3a1 1 0 0 1-1-1v-3a1 1 0 0 1 1-1zm10-18h3a1 1 0 0 1 1 1v3a1 1 0 0 1-1 1h-3a1 1 0 0 1-1-1v-3a1 1 0 0 1 1-1zm0 18h3a1 1 0 0 1 1 1v3a1 1 0 0 1-1 1h-3a1 1 0 0 1-1-1v-3a1 1 0 0 1 1-1zM66 97h3a1 1 0 0 1 1 1v3a1 1 0 0 1-1 1h-3a1 1 0 0 1-1-1v-3a1 1 0 0 1 1-1zm10 0h3a1 1 0 0 1 1 1v3a1 1 0 0 1-1 1h-3a1 1 0 0 1-1-1v-3a1 1 0 0 1 1-1zm10 0h3a1 1 0 0 1 1 1v3a1 1 0 0 1-1 1h-3a1 1 0 0 1-1-1v-3a1 1 0 0 1 1-1zm10 0h3a1 1 0 0 1 1 1v3a1 1 0 0 1-1 1h-3a1 1 0 0 1-1-1v-3a1 1 0 0 1 1-1zm-30 14h33a1 1 0 0 1 1 1v1a1 1 0 0 1-1 1H66a1 1 0 0 1-1-1v-1a1 1 0 0 1 1-1zm0 12h3a1 1 0 0 1 1 1v3a1 1 0 0 1-1 1h-3a1 1 0 0 1-1-1v-3a1 1 0 0 1 1-1zm0 18h3a1 1 0 0 1 1 1v3a1 1 0 0 1-1 1h-3a1 1 0 0 1-1-1v-3a1 1 0 0 1 1-1zm0 17h3a1 1 0 0 1 1 1v3a1 1 0 0 1-1 1h-3a1 1 0 0 1-1-1v-3a1 1 0 0 1 1-1zm10-35h3a1 1 0 0 1 1 1v3a1 1 0 0 1-1 1h-3a1 1 0 0 1-1-1v-3a1 1 0 0 1 1-1zm0 18h3a1 1 0 0 1 1 1v3a1 1 0 0 1-1 1h-3a1 1 0 0 1-1-1v-3a1 1 0 0 1 1-1zm10-18h3a1 1 0 0 1 1 1v3a1 1 0 0 1-1 1h-3a1 1 0 0 1-1-1v-3a1 1 0 0 1 1-1zm0 18h3a1 1 0 0 1 1 1v3a1 1 0 0 1-1 1h-3a1 1 0 0 1-1-1v-3a1 1 0 0 1 1-1zm10-18h3a1 1 0 0 1 1 1v3a1 1 0 0 1-1 1h-3a1 1 0 0 1-1-1v-3a1 1 0 0 1 1-1zm0 18h3a1 1 0 0 1 1 1v3a1 1 0 0 1-1 1h-3a1 1 0 0 1-1-1v-3a1 1 0 0 1 1-1zm0 17h3a1 1 0 0 1 1 1v3a1 1 0 0 1-1 1h-3a1 1 0 0 1-1-1v-3a1 1 0 0 1 1-1z" fill="#FFE1D5"/><path d="M120 166.744a75.103 75.103 0 0 1-6 3.93V160h6v6.744zM124 107h6v11h-6v-11zm0 18h6v11h-6v-11zm0 18h6v11h-6v-11zm-10-36h6v11h-6v-11zm0 18h6v11h-6v-11zm0 18h6v11h-6v-11z" fill="#FFE493"/><path fill="#FF9D7F" d="M63 34h41v10H63z"/><path fill="#FFC56D" d="M29 75h28v8H29z"/><path fill="#FCA488" d="M22 91h28v8H22zm0 16h28v8H22z"/><path fill="#FBEAD0" d="M24 93h26v6H24zm0 16h26v6H24z"/><path fill="#FCA488" d="M22 123h28v8H22z"/><path fill="#FBEAD0" d="M24 125h26v6H24z"/><path fill="#FCA488" d="M22 139h28v8H22z"/><path fill="#FBEAD0" d="M24 141h26v6H24z"/><path d="M27.254 163A75.46 75.46 0 0 1 22 158.048V155h28v8H27.254z" fill="#FCA488"/><path d="M27.254 163A75.447 75.447 0 0 1 24 160.046V157h26v6H27.254z" fill="#FBEAD0"/><path d="M91 179.5a75.344 75.344 0 0 1-15 1.5v-24h15v22.5z" fill="#FFE1D5"/><path d="M89 179.877a75.324 75.324 0 0 1-11 1.097V159h11v20.877z" fill="#FFF"/></g></svg>