<svg width="159" height="181" viewBox="0 0 159 181" xmlns="http://www.w3.org/2000/svg"><title>个人</title><g fill="none" fill-rule="evenodd"><circle fill="#FFF7E3" cx="76" cy="106" r="75"/><circle fill="#FFEDC3" cx="76" cy="106" r="50"/><path d="M124 21h2a1 1 0 1 1 0 2h-2v2a1 1 0 1 1-2 0v-2h-2a1 1 0 1 1 0-2h2v-2a1 1 0 1 1 2 0v2zM5 84h2a1 1 0 0 1 0 2H5v2a1 1 0 0 1-2 0v-2H1a1 1 0 0 1 0-2h2v-2a1 1 0 0 1 2 0v2z" fill="#FFEDC3"/><path d="M47 4h1a1 1 0 0 1 0 2h-1v1a1 1 0 0 1-2 0V6h-1a1 1 0 0 1 0-2h1V3a1 1 0 0 1 2 0v1z" fill="#FFF7E3"/><path d="M8.071 33.657l1.414 1.414a1 1 0 0 1-1.414 1.414l-1.414-1.414-1.414 1.414a1 1 0 1 1-1.415-1.414l1.415-1.414-1.415-1.414a1 1 0 1 1 1.415-1.415l1.414 1.415 1.414-1.415a1 1 0 0 1 1.414 1.415l-1.414 1.414zm141 95l1.414 1.414a1 1 0 1 1-1.414 1.414l-1.414-1.414-1.414 1.414a1 1 0 1 1-1.415-1.414l1.415-1.414-1.415-1.414a1 1 0 1 1 1.415-1.415l1.414 1.415 1.414-1.415a1 1 0 1 1 1.414 1.415l-1.414 1.414z" fill="#FFEDC3"/><path d="M150.16 39.328l.833.833a.588.588 0 1 1-.832.832l-.833-.832-.832.832a.588.588 0 1 1-.832-.832l.832-.833-.832-.832a.588.588 0 0 1 .832-.832l.832.832.833-.832a.588.588 0 1 1 .832.832l-.832.832z" fill="#FFF7E3"/><circle fill="#FFF7E3" cx="157" cy="37" r="2"/><circle fill="#FFEDC3" cx="36" cy="2" r="2"/><circle fill="#FFEDC3" cx="156.5" cy="57.5" r="1.5"/><circle fill="#FFF7E3" cx="156.5" cy="121.5" r="1.5"/><path d="M113.61 170.902C102.555 177.323 89.708 181 76 181c-13.543 0-26.248-3.59-37.214-9.87L36 109.48 75.301 92 118 109.48l-4.39 61.422z" fill="#FEC337"/><rect fill="#FFD674" x="79" y="126" width="23" height="24" rx="5"/><path d="M84 126h13a5 5 0 0 1 5 5v1l-10.68 4L79 132v-1a5 5 0 0 1 5-5zM59 99.392L75.584 92 93 99.145C92.852 108.48 85.296 116 75.997 116 66.78 116 59.276 108.611 59 99.392z" fill="#FFF"/><path d="M63 83h25v15.5c0 6.904-5.596 12.5-12.5 12.5S63 105.404 63 98.5V83z" fill="#FFCCB9" opacity=".5"/><path d="M63 83h25v15.5c0 6.904-5.596 12.5-12.5 12.5S63 105.404 63 98.5V83z" fill="#FFCCB9"/><path d="M63 88.338L88.504 83c1.35 13.453-.054 21.73-4.208 24.832-2.591 1.934-5.431 2.82-10.313 3.162-2.945.206 15.58-5.184 3.64-12.987-6.84-.106-11.715-3.33-14.623-9.669z" fill="#FABAA6"/><ellipse fill="#FABAA6" cx="99.5" cy="66" rx="5.5" ry="6"/><ellipse fill="#FABAA6" cx="52.5" cy="66" rx="5.5" ry="6"/><path d="M76.5 25C90.031 25 101 35.97 101 49.5v.172l-.127 18.126C100.779 81.192 89.894 92 76.5 92c-13.394 0-24.279-10.808-24.373-24.202L52 49.672c-.095-13.53 10.797-24.576 24.328-24.671L76.5 25z" fill="#FFCCB9"/><path d="M83.44 33.282c-.012.27-.014.563-.008.877l-27.287-3.021.153-2.527 27.143 4.671zm5.782.925l9.676-3.131L101 52.4l-.108 15.472C100.798 81.225 89.948 92 76.596 92c-1.91 0-3.767-.236-5.54-.68 13.303-.058 24.096-10.81 24.19-24.127l.106-15.07c-.184-7.401-2.227-13.373-6.13-17.916z" fill="#FABAA6"/><circle fill="#4F281B" cx="67" cy="61" r="3"/><circle fill="#4F281B" cx="85" cy="61" r="3"/><path d="M82.824 46.398c1.933-.783 4.48-.41 7.637 1.117 1.257.748 1.744 1.572 1.46 2.473-.282.9-1.044 1.2-2.286.898-2.786-.855-5.032-.855-6.738 0-2.006-.567-2.974-3.314-.073-4.488z" fill="#9D493F"/><path d="M74.04 66.164c.657-.197 3.394-.24 4.495 0 1.101.239 1.786.73 1.313 1.853-.27 1.322-1.384 1.983-3.341 1.983-1.876 0-3.026-.661-3.45-1.983-.243-.74.326-1.657.983-1.853z" fill="#F3997F"/><path d="M52.65 52.51c2.664 1.135-.428.95 8.263 2.916 17.286 3.91 21.661-24.57 31.633-20.779 7.566 2.877 8.447 19.565 7.57 25.908 1.52-.285 2.661 2.01 3.2 1.312 2.549-5.128 2.558-15.211 2.672-18.668.206-6.252-2.268-10.318-4.798-8.552C103.338 22.63 88.592 16 73.8 16c-14.793 0-26.785 12.177-26.785 27.199 0 5.846-.31 16.256 1.9 18.397 1.784-1.587 2.675-1.33 3.193-1.587.407-2 .026-5.366.541-7.498z" fill="#A04940"/><path d="M62.026 33.43C65 31.55 68 28.664 68 27.004 68 25.345 66.89 24 65.52 24c-1.787 0-6.373 4.23-7.252 5.387-.97 2.794.785 5.92 3.758 4.042z" fill="#B8593D"/><path d="M52.65 52.613c2.664 1.122-.428.939 8.263 2.884C78.2 59.365 82.574 31.193 92.546 34.943c7.566 2.846 8.447 19.353 7.57 25.627 1.52-.281 2.661 1.99 3.2 1.298 2.549-5.072 2.558-15.046 2.672-18.466.206-6.184-2.268-10.206-4.798-8.459 1.095-6.062-2.204-10.74-7.662-13.867-1.845-1.057 5.253 9.207-10.832 8.509C76.91 33.56 71.014 45.952 64.856 48.7c-9.24 4.126-17.854-2.257-17.855-1.76-.015 5.73.107 12.929 1.913 14.66 1.785-1.57 2.676-1.315 3.194-1.57.407-1.977.026-5.307.541-7.417z" fill="#783A2F"/><path d="M67.196 74h18.7c1.587 0 2.276.693 2.068 2.078C85.614 80.693 81.86 83 76.704 83s-9.016-2.307-11.578-6.922c-.435-1.385.255-2.078 2.07-2.078z" fill="#4E2919"/><path d="M67 74h18c-1.67 2-4.58 3-8.729 3-4.15 0-7.24-1-9.271-3z" fill="#FFF"/><path d="M82.86 80.437C81.067 81.479 78.94 82 76.483 82c-2.398 0-4.505-.496-6.32-1.488-.958-.524 2.49-2.487 6.092-2.512 3.687-.025 7.531 1.9 6.607 2.437z" fill="#F24D4C"/><path d="M135.732 151.362a75.433 75.433 0 0 1-16.27 15.768l1.606-12.367-7.53-15.44a8.66 8.66 0 0 1 3.988-11.579 8.131 8.131 0 0 1 11.082 4.21l5.958 14.46a15.993 15.993 0 0 1 1.166 4.948z" fill="#FFCCB9"/><path d="M117.813 107.941l10.966 22.482-15.567 7.593-10.966-22.482a8.66 8.66 0 1 1 15.567-7.592z" fill="#FFF"/><path d="M33.638 167.9a75.425 75.425 0 0 1-16.41-15.304 15.995 15.995 0 0 1 1.206-6.182l5.958-14.46a8.131 8.131 0 0 1 11.082-4.21 8.66 8.66 0 0 1 3.988 11.58l-7.53 15.439 1.706 13.136z" fill="#FFCCB9"/><path d="M35.187 107.941L24.22 130.423l15.567 7.593 10.966-22.482a8.66 8.66 0 1 0-15.567-7.592z" fill="#FFF"/></g></svg>